<!-- Generated by IcoMoon.io -->
<svg version="1.1" xmlns="http://www.w3.org/2000/svg" width="32" height="32" viewBox="0 0 32 32" class="icon-acces-style">
<title>acces</title>
<path d="M17.734 31.909c-0.52 0.060-1.122 0.094-1.733 0.094-8.838 0-16.002-7.164-16.002-16.002s7.164-16.002 16.002-16.002c8.838 0 16.002 7.164 16.002 16.002 0 0.612-0.034 1.216-0.101 1.811l0.007-0.073c-0.846 7.462-6.712 13.327-14.102 14.164l-0.073 0.007zM17.539 1.895c-0.462-0.053-0.997-0.084-1.54-0.084-7.836 0-14.188 6.352-14.188 14.188s6.352 14.188 14.188 14.188c7.836 0 14.188-6.352 14.188-14.188 0-0.542-0.030-1.078-0.090-1.604l0.006 0.065c-0.748-6.617-5.949-11.817-12.5-12.559l-0.065-0.006z"></path>
<path d="M16.549 17.562l4.256-4.254 1.603 1.603-4.256 4.254-1.603-1.603z"></path>
<path d="M16.546 12.263l1.603-1.603 4.255 4.255-1.603 1.603-4.255-4.255z"></path>
<path fill="none" stroke="#000" stroke-linejoin="miter" stroke-linecap="butt" stroke-miterlimit="10" stroke-width="2.2673" d="M19.476 14.909h-7.151v6.434"></path>
</svg>
