<!-- Generated by IcoMoon.io -->
<svg version="1.1" xmlns="http://www.w3.org/2000/svg" width="32" height="32" viewBox="0 0 32 32" class="icon-bureau-de-vente-style">
<title>bureau-de-vente</title>
<path fill="none" stroke-linejoin="miter" stroke-linecap="butt" stroke-miterlimit="10" stroke-width="2.1445" stroke="#000" d="M8.526 7.266c-0.069 1.952-1.668 3.508-3.631 3.508s-3.561-1.556-3.63-3.502l-0-0.006"></path>
<path fill="none" stroke-linejoin="miter" stroke-linecap="butt" stroke-miterlimit="10" stroke-width="2.1445" stroke="#000" d="M15.994 7.266c-0.069 1.952-1.668 3.508-3.631 3.508s-3.561-1.556-3.63-3.502l-0-0.006"></path>
<path fill="none" stroke-linejoin="miter" stroke-linecap="butt" stroke-miterlimit="10" stroke-width="2.1445" stroke="#000" d="M23.461 7.266c-0.069 1.952-1.668 3.508-3.631 3.508s-3.561-1.556-3.63-3.502l-0-0.006"></path>
<path fill="none" stroke-linejoin="miter" stroke-linecap="butt" stroke-miterlimit="10" stroke-width="2.1445" stroke="#000" d="M30.928 7.266c-0.069 1.952-1.668 3.508-3.631 3.508s-3.561-1.556-3.63-3.502l-0-0.006"></path>
<path fill="none" stroke-linejoin="miter" stroke-linecap="butt" stroke-miterlimit="10" stroke-width="2.1445" stroke="#000" d="M11.773 30.928v-8.711c0.002-2.441 1.981-4.419 4.422-4.422h0c2.441 0.002 4.419 1.981 4.422 4.422v8.711"></path>
<path fill="none" stroke-linejoin="miter" stroke-linecap="butt" stroke-miterlimit="10" stroke-width="2.1445" stroke="#000" d="M3.157 1.072h25.687c1.151 0 2.084 0.933 2.084 2.084v25.687c0 1.151-0.933 2.084-2.084 2.084h-25.687c-1.151 0-2.084-0.933-2.084-2.084v-25.687c0-1.151 0.933-2.084 2.084-2.084z"></path>
</svg>
