<!-- Generated by IcoMoon.io -->
<svg version="1.1" xmlns="http://www.w3.org/2000/svg" width="32" height="32" viewBox="0 0 32 32" class="icon-loupe-style">
<title>loupe</title>
<path d="M17.734 31.909c-0.52 0.060-1.122 0.094-1.733 0.094-8.838 0-16.002-7.164-16.002-16.002s7.164-16.002 16.002-16.002c8.838 0 16.002 7.164 16.002 16.002 0 0.612-0.034 1.216-0.101 1.811l0.007-0.073c-0.846 7.462-6.712 13.327-14.102 14.164l-0.073 0.007zM17.539 1.895c-0.462-0.053-0.997-0.084-1.54-0.084-7.836 0-14.188 6.352-14.188 14.188s6.352 14.188 14.188 14.188c7.836 0 14.188-6.352 14.188-14.188 0-0.542-0.030-1.078-0.090-1.604l0.006 0.065c-0.748-6.617-5.949-11.817-12.5-12.559l-0.065-0.006z"></path>
<path fill="none" stroke="#000" stroke-linejoin="miter" stroke-linecap="butt" stroke-miterlimit="10" stroke-width="2.2673" d="M17.258 11.649c0.719 0.718 1.163 1.71 1.163 2.807 0 2.191-1.776 3.968-3.968 3.968s-3.968-1.776-3.968-3.968c0-1.096 0.444-2.088 1.163-2.807l0-0c0.717-0.719 1.709-1.163 2.805-1.163s2.087 0.444 2.805 1.163l0 0z"></path>
<path fill="none" stroke="#000" stroke-linejoin="miter" stroke-linecap="butt" stroke-miterlimit="10" stroke-width="2.2673" d="M21.512 21.512l-4.253-4.253"></path>
</svg>
